<?xml version="1.0" encoding="UTF-8" standalone="no"?>
<!-- Created with Inkscape (http://www.inkscape.org/) -->

<svg
   width="80.938568mm"
   height="80.938568mm"
   viewBox="0 0 80.938568 80.938568"
   version="1.1"
   id="svg5"
   inkscape:version="1.1.1 (1:1.1+202109281949+c3084ef5ed)"
   sodipodi:docname="logo.svg"
   xmlns:inkscape="http://www.inkscape.org/namespaces/inkscape"
   xmlns:sodipodi="http://sodipodi.sourceforge.net/DTD/sodipodi-0.dtd"
   xmlns="http://www.w3.org/2000/svg"
   xmlns:svg="http://www.w3.org/2000/svg">
  <sodipodi:namedview
     id="namedview7"
     pagecolor="#ffffff"
     bordercolor="#666666"
     borderopacity="1.0"
     inkscape:pageshadow="2"
     inkscape:pageopacity="0.0"
     inkscape:pagecheckerboard="0"
     inkscape:document-units="mm"
     showgrid="false"
     inkscape:zoom="1.3736953"
     inkscape:cx="176.53114"
     inkscape:cy="158.69604"
     inkscape:window-width="1920"
     inkscape:window-height="1043"
     inkscape:window-x="1920"
     inkscape:window-y="0"
     inkscape:window-maximized="1"
     inkscape:current-layer="layer1" />
  <defs
     id="defs2" />
  <g
     inkscape:label="Layer 1"
     inkscape:groupmode="layer"
     id="layer1"
     transform="translate(-46.756623,-86.990364)">
    <g
       id="g6131"
       transform="translate(-44.451637,-5.2982561)">
      <path
         id="rect876"
         style="opacity:1;fill-opacity:0.999549;stroke-linecap:round"
         d="m 91.20826,92.28862 h 80.93857 v 80.93857 H 91.20826 Z" />
      <g
         aria-label="93"
         transform="matrix(1.4960827,0,0,1.4960827,-613.52024,-617.97957)"
         id="text1532"
         style="font-size:39.9999px;line-height:1;font-family:Acre;-inkscape-font-specification:Acre;letter-spacing:0px;word-spacing:0px;baseline-shift:baseline;opacity:1;vector-effect:none;stroke-width:0.999999;stop-color:#000000;stop-opacity:1">
        <path
           d="m 487.2789,502.84212 c -4.15999,0 -6.19998,-2.84 -6.19998,-5.63999 0,-2.83999 2.03999,-5.59999 6.19998,-5.59999 4.15999,0 6.19999,2.76 6.19999,5.59999 0,2.79999 -2.04,5.63999 -6.19999,5.63999 z m 8.59998,0 c 1.08,-1.68 1.72,-3.67999 1.72,-5.63999 0,-4.87999 -3.47999,-9.71997 -10.31998,-9.71997 -6.83998,0 -10.27997,4.83998 -10.27997,9.71997 0,3.23999 1.56,6.55998 4.71999,8.35998 1.91999,1.08 4.71999,1.2 6.83998,0.44 l -6.87998,9.75997 h 4.99998 z"
           style="font-family:'Code Pro';-inkscape-font-specification:'Code Pro';fill:#ffffff"
           id="path826" />
        <path
           d="m 506.11873,503.28212 h 4.19999 c 3.63999,0 5.07998,2.31999 5.07998,4.31999 0,2.31999 -1.87999,4.75998 -6.31998,4.75998 -3.51999,0 -5.35999,-1.99999 -5.71999,-4.23999 l -3.75999,0.68 c 0.64,3.83999 3.47999,7.31998 9.47998,7.31998 6.71998,0 10.07997,-4.07999 10.11997,-8.11998 0.04,-2.75999 -1.07999,-5.23998 -3.59999,-6.71998 2.04,-1.36 2.56,-3.63999 2.56,-5.83998 -0.04,-5.67999 -4.79999,-7.91999 -9.31998,-7.91999 -3.71999,0 -7.43998,2.08 -8.43998,6.31999 l 3.63999,0.88 c 0.52,-2.16 2.67999,-3.35999 4.79999,-3.35999 2.63999,0 5.31999,1.03999 5.31999,4.07999 0,1.83999 -1.04,4.15999 -3.83999,4.15999 h -4.19999 z"
           style="font-family:'Code Pro';-inkscape-font-specification:'Code Pro';fill:#ffffff"
           id="path828" />
      </g>
    </g>
  </g>
</svg>
